# xmcd
#
# Track frame offsets:
# 150
# 17758
# 52110
#
# Disc length: 976 seconds
#
#
# Revision: 3
# Processed by: cddbd v1.5.1PL2 Copyright (c) Steve Scherf et al.
# Submitted via: FreeRIP 2.945 
#
DISCID=2003ce03
DTITLE=D Mob - Put Your Hands Together
DYEAR=1989
DGENRE=house
TTITLE0=D Mob - Put Your Hands Together - 7-inch Version)
TTITLE1=D Mob - Put Your Hands Together (Slammin' and Jammin' Mix)
TTITLE2=D Mob - A Rhythm From Within
EXTD=
EXTT0=
EXTT1=
EXTT2=
PLAYORDER=
